<mxfile host="app.diagrams.net" modified="2021-10-18T21:08:51.675Z" agent="5.0 (Windows NT 10.0; Win64; x64) AppleWebKit/537.36 (KHTML, like Gecko) Chrome/94.0.4606.81 Safari/537.36" etag="urfIBEpWZ9mkFQ8Tm6Bh" version="15.5.5" type="github">
  <diagram name="Page-1" id="e7e014a7-5840-1c2e-5031-d8a46d1fe8dd">
    <mxGraphModel dx="782" dy="1121" grid="1" gridSize="10" guides="1" tooltips="1" connect="1" arrows="1" fold="1" page="1" pageScale="1" pageWidth="1169" pageHeight="826" background="none" math="0" shadow="0">
      <root>
        <mxCell id="0" />
        <mxCell id="1" parent="0" />
        <mxCell id="18rAvD450jD0yJ8-nGkG-41" value="" style="rounded=1;whiteSpace=wrap;html=1;strokeColor=#000000;arcSize=13;" vertex="1" parent="1">
          <mxGeometry x="190" y="110" width="490" height="590" as="geometry" />
        </mxCell>
        <mxCell id="18rAvD450jD0yJ8-nGkG-42" value="&lt;h1&gt;Создание документа&lt;/h1&gt;" style="text;html=1;strokeColor=none;fillColor=none;spacing=5;spacingTop=-20;whiteSpace=wrap;overflow=hidden;rounded=0;" vertex="1" parent="1">
          <mxGeometry x="220" y="120" width="260" height="40" as="geometry" />
        </mxCell>
        <mxCell id="18rAvD450jD0yJ8-nGkG-43" value="предусловие: пользователь имеет права на создание документа" style="text;html=1;strokeColor=none;fillColor=none;align=left;verticalAlign=middle;whiteSpace=wrap;rounded=0;fontSize=14;" vertex="1" parent="1">
          <mxGeometry x="200" y="150" width="430" height="30" as="geometry" />
        </mxCell>
        <mxCell id="18rAvD450jD0yJ8-nGkG-44" value="постусловие: документ создан" style="text;html=1;strokeColor=none;fillColor=none;align=left;verticalAlign=middle;whiteSpace=wrap;rounded=0;fontSize=14;" vertex="1" parent="1">
          <mxGeometry x="200" y="170" width="430" height="30" as="geometry" />
        </mxCell>
        <mxCell id="18rAvD450jD0yJ8-nGkG-52" style="edgeStyle=orthogonalEdgeStyle;rounded=0;orthogonalLoop=1;jettySize=auto;html=1;fontSize=14;strokeColor=#000000;endArrow=open;endFill=0;startSize=6;endSize=12;" edge="1" parent="1" source="18rAvD450jD0yJ8-nGkG-45" target="18rAvD450jD0yJ8-nGkG-46">
          <mxGeometry relative="1" as="geometry" />
        </mxCell>
        <mxCell id="18rAvD450jD0yJ8-nGkG-45" value="" style="ellipse;whiteSpace=wrap;html=1;aspect=fixed;fontSize=14;strokeColor=#000000;align=left;fillColor=#000000;" vertex="1" parent="1">
          <mxGeometry x="422.5" y="210" width="25" height="25" as="geometry" />
        </mxCell>
        <mxCell id="18rAvD450jD0yJ8-nGkG-55" style="edgeStyle=orthogonalEdgeStyle;rounded=0;orthogonalLoop=1;jettySize=auto;html=1;fontSize=14;endArrow=open;endFill=0;startSize=6;endSize=12;strokeColor=#000000;" edge="1" parent="1" source="18rAvD450jD0yJ8-nGkG-46" target="18rAvD450jD0yJ8-nGkG-47">
          <mxGeometry relative="1" as="geometry" />
        </mxCell>
        <mxCell id="18rAvD450jD0yJ8-nGkG-46" value="Запросить доступные типы документов" style="rounded=1;whiteSpace=wrap;html=1;fontSize=14;strokeColor=#000000;align=center;" vertex="1" parent="1">
          <mxGeometry x="322.5" y="270" width="225" height="40" as="geometry" />
        </mxCell>
        <mxCell id="18rAvD450jD0yJ8-nGkG-56" style="edgeStyle=orthogonalEdgeStyle;rounded=0;orthogonalLoop=1;jettySize=auto;html=1;fontSize=14;endArrow=open;endFill=0;startSize=6;endSize=12;strokeColor=#000000;" edge="1" parent="1" source="18rAvD450jD0yJ8-nGkG-47" target="18rAvD450jD0yJ8-nGkG-48">
          <mxGeometry relative="1" as="geometry" />
        </mxCell>
        <mxCell id="18rAvD450jD0yJ8-nGkG-47" value="Проверить права пользователя" style="rounded=1;whiteSpace=wrap;html=1;fontSize=14;strokeColor=#000000;align=center;" vertex="1" parent="1">
          <mxGeometry x="322.5" y="350" width="225" height="37" as="geometry" />
        </mxCell>
        <mxCell id="18rAvD450jD0yJ8-nGkG-57" style="edgeStyle=orthogonalEdgeStyle;rounded=0;orthogonalLoop=1;jettySize=auto;html=1;entryX=0.5;entryY=0;entryDx=0;entryDy=0;fontSize=14;endArrow=open;endFill=0;startSize=6;endSize=12;strokeColor=#000000;" edge="1" parent="1" source="18rAvD450jD0yJ8-nGkG-48" target="18rAvD450jD0yJ8-nGkG-49">
          <mxGeometry relative="1" as="geometry" />
        </mxCell>
        <mxCell id="18rAvD450jD0yJ8-nGkG-48" value="Запросить шаблон документа выбранного типа" style="rounded=1;whiteSpace=wrap;html=1;fontSize=14;strokeColor=#000000;align=center;spacingTop=0;spacingBottom=0;spacing=2;" vertex="1" parent="1">
          <mxGeometry x="322.5" y="430" width="225" height="40" as="geometry" />
        </mxCell>
        <mxCell id="18rAvD450jD0yJ8-nGkG-58" style="edgeStyle=orthogonalEdgeStyle;rounded=0;orthogonalLoop=1;jettySize=auto;html=1;fontSize=14;endArrow=open;endFill=0;startSize=6;endSize=12;strokeColor=#000000;" edge="1" parent="1" source="18rAvD450jD0yJ8-nGkG-49" target="18rAvD450jD0yJ8-nGkG-50">
          <mxGeometry relative="1" as="geometry" />
        </mxCell>
        <mxCell id="18rAvD450jD0yJ8-nGkG-49" value="Заполнить шаблон" style="rounded=1;whiteSpace=wrap;html=1;fontSize=14;strokeColor=#000000;align=center;" vertex="1" parent="1">
          <mxGeometry x="322.5" y="510" width="225" height="30" as="geometry" />
        </mxCell>
        <mxCell id="18rAvD450jD0yJ8-nGkG-59" style="edgeStyle=orthogonalEdgeStyle;rounded=0;orthogonalLoop=1;jettySize=auto;html=1;fontSize=14;endArrow=open;endFill=0;startSize=6;endSize=12;strokeColor=#000000;" edge="1" parent="1" source="18rAvD450jD0yJ8-nGkG-50" target="18rAvD450jD0yJ8-nGkG-51">
          <mxGeometry relative="1" as="geometry" />
        </mxCell>
        <mxCell id="18rAvD450jD0yJ8-nGkG-50" value="Утвердить создание документа" style="rounded=1;whiteSpace=wrap;html=1;fontSize=14;strokeColor=#000000;align=center;" vertex="1" parent="1">
          <mxGeometry x="322.5" y="580" width="225" height="30" as="geometry" />
        </mxCell>
        <mxCell id="18rAvD450jD0yJ8-nGkG-51" value="" style="ellipse;html=1;shape=endState;fillColor=#000000;strokeColor=#000000;fontSize=14;align=center;" vertex="1" parent="1">
          <mxGeometry x="420" y="650" width="30" height="30" as="geometry" />
        </mxCell>
      </root>
    </mxGraphModel>
  </diagram>
</mxfile>
